<svg width="512" height="512" viewBox="0 0 512 512" xmlns="http://www.w3.org/2000/svg">
  <defs>
    <linearGradient id="grad1" x1="0%" y1="0%" x2="100%" y2="100%">
      <stop offset="0%" style="stop-color:#667eea;stop-opacity:1" />
      <stop offset="100%" style="stop-color:#764ba2;stop-opacity:1" />
    </linearGradient>
  </defs>
  
  <!-- 배경 원 -->
  <circle cx="256" cy="256" r="240" fill="url(#grad1)" stroke="#fff" stroke-width="8"/>
  
  <!-- 버스 본체 -->
  <rect x="80" y="180" width="352" height="200" rx="20" fill="#fff"/>
  
  <!-- 버스 창문들 -->
  <rect x="100" y="200" width="60" height="80" rx="8" fill="#667eea"/>
  <rect x="180" y="200" width="60" height="80" rx="8" fill="#667eea"/>
  <rect x="260" y="200" width="60" height="80" rx="8" fill="#667eea"/>
  <rect x="340" y="200" width="60" height="80" rx="8" fill="#667eea"/>
  
  <!-- 버스 문 -->
  <rect x="420" y="220" width="12" height="140" fill="#667eea"/>
  
  <!-- 바퀴들 -->
  <circle cx="140" cy="400" r="25" fill="#333"/>
  <circle cx="140" cy="400" r="15" fill="#666"/>
  <circle cx="372" cy="400" r="25" fill="#333"/>
  <circle cx="372" cy="400" r="15" fill="#666"/>
  
  <!-- 헤드라이트 -->
  <circle cx="100" cy="250" r="15" fill="#ffeb3b"/>
  <circle cx="100" cy="310" r="15" fill="#ffeb3b"/>
  
  <!-- 번호판 -->
  <rect x="200" y="320" width="112" height="40" rx="5" fill="#333"/>
  <text x="256" y="345" text-anchor="middle" fill="#fff" font-family="Arial" font-size="16" font-weight="bold">버스</text>
</svg>
